HIERARCHY
ROOT root
{
	OFFSET	0	13.1	24.9
	CHANNELS 6  Xposition Yposition Zposition Xrotation Yrotation Zrotation
	JOINT spine_1
	{
		OFFSET	0	9.99999	0
		CHANNELS 3  Xrotation Yrotation Zrotation
		JOINT spine_2
		{
			OFFSET	0	112	-10
			CHANNELS 3  Xrotation Yrotation Zrotation
			JOINT spine_3
			{
				OFFSET	0	206.5	19.3
				CHANNELS 3  Xrotation Yrotation Zrotation
				JOINT spine_4
				{
					OFFSET	0	110.4	14.6
					CHANNELS 3  Xrotation Yrotation Zrotation
					JOINT neck_1
					{
						OFFSET	0	71.8	-50.3
						CHANNELS 3  Xrotation Yrotation Zrotation
						JOINT neck_2
						{
							OFFSET	0	86.2	-25.8
							CHANNELS 3  Xrotation Yrotation Zrotation
							JOINT head_ee
							{
								OFFSET	0	179.8	-8.7
								CHANNELS 3  Xrotation Yrotation Zrotation
								End Site
								{
									OFFSET	1	0	0
								}
							}
						}
					}
					JOINT left_clavicle
					{
						OFFSET	-43.2	22.4	-70.8
						CHANNELS 3  Xrotation Yrotation Zrotation
						JOINT left_shoulder
						{
							OFFSET	-93.9	-5.79999	48.7
							CHANNELS 3  Xrotation Yrotation Zrotation
							JOINT left_elbow
							{
								OFFSET	-291.4	-30.8	15.2
								CHANNELS 3  Xrotation Yrotation Zrotation
								JOINT left_lowarm_twist
								{
									OFFSET	-110.7	-3.89999	13.6
									CHANNELS 3  Xrotation Yrotation Zrotation
									JOINT left_hand
									{
										OFFSET	-110.7	-3.89999	13.6
										CHANNELS 3  Xrotation Yrotation Zrotation
										JOINT left_ee
										{
											OFFSET	-80.8	-5.10001	12.1
											CHANNELS 3  Xrotation Yrotation Zrotation
											End Site
											{
												OFFSET	1	0	0
											}
										}
									}
								}
							}
						}
					}
					JOINT right_clavicle
					{
						OFFSET	43.2	22.4	-70.8
						CHANNELS 3  Xrotation Yrotation Zrotation
						JOINT right_shoulder
						{
							OFFSET	93.9	-5.79999	48.7
							CHANNELS 3  Xrotation Yrotation Zrotation
							JOINT right_elbow
							{
								OFFSET	291.4	-30.8	15.2
								CHANNELS 3  Xrotation Yrotation Zrotation
								JOINT right_lowarm_twist
								{
									OFFSET	110.7	-3.89999	13.6
									CHANNELS 3  Xrotation Yrotation Zrotation
									JOINT right_hand
									{
										OFFSET	110.7	-3.89999	13.6
										CHANNELS 3  Xrotation Yrotation Zrotation
										JOINT right_ee
										{
											OFFSET	80.8	-5.10001	12.1
											CHANNELS 3  Xrotation Yrotation Zrotation
											End Site
											{
												OFFSET	1	0	0
											}
										}
									}
								}
							}
						}
					}
				}
			}
		}
	}
	JOINT left_hip
	{
		OFFSET	-82.8	-127.5	0.300001
		CHANNELS 3  Xrotation Yrotation Zrotation
		JOINT left_knee
		{
			OFFSET	-28.2	-396.7	2.2
			CHANNELS 3  Xrotation Yrotation Zrotation
			JOINT left_ankle
			{
				OFFSET	-11.7	-411.3	35.4
				CHANNELS 3  Xrotation Yrotation Zrotation
				JOINT left_toes
				{
					OFFSET	0	-60	-88.6
					CHANNELS 3  Xrotation Yrotation Zrotation
					JOINT left_foot_ee
					{
						OFFSET	-22.5	-16.5	-42.2
						CHANNELS 3  Xrotation Yrotation Zrotation
						End Site
						{
							OFFSET	1	0	0
						}
					}
				}
			}
		}
	}
	JOINT right_hip
	{
		OFFSET	82.8	-127.5	0.300001
		CHANNELS 3  Xrotation Yrotation Zrotation
		JOINT right_knee
		{
			OFFSET	28.2	-396.7	2.2
			CHANNELS 3  Xrotation Yrotation Zrotation
			JOINT right_ankle
			{
				OFFSET	11.7	-411.3	35.4
				CHANNELS 3  Xrotation Yrotation Zrotation
				JOINT right_toes
				{
					OFFSET	0	-60	-88.6
					CHANNELS 3  Xrotation Yrotation Zrotation
					JOINT right_foot_ee
					{
						OFFSET	22.5	-16.5	-42.2
						CHANNELS 3  Xrotation Yrotation Zrotation
						End Site
						{
							OFFSET	1	0	0
						}
					}
				}
			}
		}
	}
}
MOTION
Frames: 16
Frame Time: 0.02
1826.47 666.998 -487.863 90.0001 -88.0802 90.0001 1.22447 0.289326 0.0179812 1.22443 0.287596 0.0363555 1.22461 0.27552 0.0901208 1.22471 0.286295 0.0454763 -16.6064 2.14814 0.303471 -16.6222 3.95039 1.05412 -0.0 0.0 -0.0 2.52233 25.2995 6.23513 -7.99724 -36.1481 66.7889 1.10888 -28.7795 0.284509 -4.33778 -0.172888 0.526704 1.48763 -9.91942 5.83673 -0.0 0.0 -0.0 10.6675 -3.62892 -20.7816 2.83661 -34.1186 -58.1279 0.312656 8.80423 -0.0240692 -67.4905 6.22625 -5.27268 -5.32975 -28.3791 18.1291 0.0 0.0 0.0 13.6373 14.9753 -13.0526 -31.5242 -0.017327 4.77729 38.0854 1.5521 -4.69762 3.97988 -0.0 -0.0 -0.0 0.0 -0.0 -10.4115 14.7885 -3.48446 -6.85659 -0.220978 -1.02846 40.3714 -10.8439 4.91585 -0.380448 0.0 0.0 0.0 0.0 0.0 
1833.99 665.842 -486.354 90.0001 -87.8052 90.0001 1.14041 0.311576 0.0795251 1.14036 0.305884 0.0991905 1.14089 0.281361 0.155692 1.14099 0.302419 0.109302 -17.6154 2.11861 -0.34718 -17.6361 4.26353 0.471415 -0.0 0.0 -0.0 1.83963 25.1298 5.32441 -9.61448 -34.3377 67.7714 1.03117 -27.0577 0.248117 -4.05813 -0.160541 0.493149 1.43902 -11.0249 5.0278 -0.0 0.0 -0.0 11.1931 -1.86532 -22.0057 6.08027 -33.8537 -56.919 0.331931 9.33773 -0.0271082 -65.7326 6.00306 -5.24359 -5.24488 -28.889 17.2545 0.0 0.0 0.0 16.9078 14.7381 -12.904 -33.435 -0.102759 5.05803 33.516 3.88667 -4.25431 3.41315 -0.0 -0.0 -0.0 0.0 -0.0 -11.2193 14.0885 -3.50588 -7.86792 -0.243093 -1.18207 39.5583 -12.7462 4.86316 -0.813748 0.0 0.0 0.0 0.0 0.0 
1842.5 666.589 -483.17 90.0001 -87.4422 90.0001 1.05357 0.357668 0.155527 1.05352 0.347046 0.177972 1.05461 0.306386 0.241336 1.05469 0.340655 0.189919 -18.9467 1.87176 -1.1127 -18.9665 4.19053 -0.289834 -0.0 0.0 -0.0 1.2132 25.1384 4.49652 -10.873 -32.7477 68.1672 0.921202 -24.5286 0.200257 -4.023 -0.159002 0.488931 1.2794 -10.2332 4.29051 -0.0 0.0 -0.0 11.558 -0.669898 -22.8658 8.40434 -33.6669 -56.2796 0.379089 10.6359 -0.035287 -64.0469 5.78991 -5.20924 -5.12245 -28.879 16.565 0.0 0.0 0.0 17.0162 14.7517 -12.8487 -34.1959 -0.139379 5.16901 32.8376 6.3242 -4.18389 3.72691 -0.0 -0.0 -0.0 0.0 -0.0 -12.3454 13.7634 -3.65321 -8.6673 -0.258652 -1.30375 39.0551 -14.3215 4.83732 -0.829417 0.0 0.0 0.0 0.0 0.0 
1848.27 667.168 -483.24 90.0001 -87.1126 90.0001 0.840711 0.388587 0.264078 0.840673 0.370996 0.28827 0.842575 0.307386 0.355318 0.842579 0.359644 0.302313 -19.614 3.25096 -0.337642 -19.6713 6.43902 1.02289 -0.0 0.0 -0.0 0.958437 23.8833 4.06005 -12.2345 -29.7806 69.4628 0.7006 -19.1397 0.11812 -4.24066 -0.168581 0.515057 1.29858 -10.3546 4.36787 -0.0 0.0 -0.0 11.6874 1.50127 -23.2965 10.7237 -33.272 -57.6202 0.50321 13.9974 -0.0617751 -61.7293 5.49857 -5.15175 -4.82339 -28.857 14.8921 0.0 0.0 0.0 18.7147 11.3363 -10.8715 -34.9969 -0.179524 5.28533 29.8839 8.82679 -3.87984 1.13952 -0.0 -0.0 -0.0 0.0 -0.0 -13.7415 15.1006 -3.24604 -6.71355 -0.217631 -1.00676 35.204 -14.5779 4.47323 -2.38545 0.0 0.0 0.0 0.0 0.0 
1858.79 665.372 -484.044 90.0 -86.5661 90.0 0.700027 0.359095 0.310633 0.700016 0.338601 0.332854 0.702029 0.265927 0.393352 0.70196 0.324711 0.346418 -19.964 2.96063 -0.693508 -20.0154 6.0602 0.590715 -0.0 0.0 -0.0 0.982103 23.9751 4.09949 -13.8523 -28.7304 69.8033 0.485799 -13.5312 0.0576326 -4.39078 -0.175245 0.533055 1.3067 -8.89312 5.05214 -0.0 0.0 -0.0 11.8204 3.77312 -23.7136 13.2897 -32.6844 -58.6117 0.563855 15.6061 -0.0772699 -59.9419 5.27553 -5.09937 -4.83198 -28.9544 14.8708 0.0 0.0 0.0 20.9333 10.4485 -10.2455 -34.1022 -0.134792 5.15538 27.833 10.75 -3.66268 -1.33162 0.0 0.0 -0.0 0.0 -0.0 -15.528 14.6164 -2.98447 -5.94906 -0.198826 -0.890948 33.7456 -17.109 4.36033 -2.02683 0.0 0.0 0.0 0.0 0.0 
1865.41 660.915 -485.325 90.0 -86.5099 90.0 0.575033 0.31227 0.406478 0.575079 0.285772 0.425524 0.57727 0.194748 0.47414 0.577056 0.267185 0.437434 -18.5731 3.65233 -1.68971 -18.646 7.93042 -0.137199 -0.0 0.0 -0.0 1.12184 23.1418 4.22543 -15.6427 -27.1194 70.0909 0.270927 -7.64412 0.0180997 -4.30554 -0.171456 0.522838 1.36461 -8.7277 5.51567 -0.0 0.0 -0.0 11.4064 7.07917 -22.9157 13.7667 -28.4929 -63.3808 0.784176 21.229 -0.146962 -60.2301 5.31138 -5.10829 -5.39935 -28.984 18.0654 0.0 0.0 0.0 24.8936 8.67964 -9.51173 -30.6735 0.0176811 4.65143 23.284 12.3834 -3.14411 -2.91148 0.0 0.0 -0.0 0.0 -0.0 -18.4536 15.3478 -2.42637 -1.08715 -0.0432348 -0.161232 34.1893 -16.4567 4.39622 -2.46803 0.0 0.0 0.0 0.0 0.0 
1868.28 659.06 -488.109 90.0001 -87.0329 90.0001 0.55101 0.221566 0.468563 0.551112 0.191302 0.481711 0.552793 0.090717 0.510306 0.55247 0.170171 0.489575 -19.6335 3.54507 -0.30363 -19.7013 6.98828 1.17757 -0.0 0.0 -0.0 1.03262 23.0464 4.09479 -16.3294 -26.0745 71.1744 0.175725 -4.97512 0.00763414 -4.60655 -0.184908 0.558895 1.08392 -6.3364 4.63111 -0.0 0.0 -0.0 11.6875 8.45901 -23.562 18.3112 -30.3731 -62.6076 0.845584 22.7275 -0.169946 -59.5191 5.22301 -5.08596 -4.89689 -28.0842 15.8621 0.0 0.0 0.0 26.4425 8.0351 -8.98721 -28.242 0.107378 4.28908 21.888 14.7228 -2.98934 -4.20325 0.0 0.0 -0.0 0.0 -0.0 -18.043 14.7872 -2.18203 -1.31233 -0.0518064 -0.194727 33.4673 -15.8799 4.31401 -2.64922 0.0 0.0 0.0 0.0 0.0 
1872.39 657.893 -488.915 90.0001 -88.0348 90.0001 0.390415 0.0736136 0.528462 0.390569 0.0398375 0.532075 0.391003 -0.0692745 0.529048 0.390612 0.0151469 0.533349 -18.6218 3.77306 -0.16311 -18.6906 7.35023 1.33556 -0.0 0.0 -0.0 1.1427 23.2848 4.26505 -17.7524 -25.0813 70.7652 0.164709 -4.66465 0.00670853 -4.0233 -0.159016 0.488967 0.982389 -0.689508 6.29412 -0.0 0.0 -0.0 11.6414 10.2681 -23.4685 20.13 -29.7679 -63.7153 1.06866 27.8953 -0.265418 -58.799 5.13378 -5.06222 -5.36478 -27.5704 18.9519 0.0 0.0 0.0 28.9411 7.34707 -8.3455 -24.7117 0.210035 3.75711 18.6962 16.1942 -2.59941 -6.59256 0.0 0.0 -0.0 0.0 -0.0 -17.7574 15.0182 -2.05851 0.256221 0.0106355 0.0378807 33.9364 -17.9084 4.39272 -2.84801 0.0 0.0 0.0 0.0 0.0 
1884.31 654.882 -487.33 49.5711 -88.22 48.6868 0.219631 0.107503 0.583639 0.219817 0.0701474 0.589296 0.220632 -0.0530005 0.591085 0.220147 0.0410139 0.592038 -17.4496 4.3864 0.0174501 -17.5304 8.4204 1.65822 -0.0 0.0 -0.0 1.12989 23.608 4.27201 -19.9409 -24.2434 70.3775 0.154417 -4.37436 0.0058975 -4.9297 -0.19956 0.597526 0.727976 5.85338 7.22715 -0.0 0.0 -0.0 11.0491 12.1534 -22.1213 20.194 -27.3175 -66.2947 1.24885 31.7415 -0.355069 -59.3226 5.19863 -5.07959 -5.46441 -27.1821 19.84 0.0 0.0 0.0 31.296 6.66995 -7.85539 -20.3968 0.29071 3.10005 16.379 17.0318 -2.30436 -8.38889 0.0 0.0 -0.0 0.0 -0.0 -17.8867 15.0402 -1.46265 0.437289 0.0182534 0.0646223 35.338 -14.4993 4.48555 -2.81507 0.0 0.0 0.0 0.0 0.0 
1896.53 656.378 -489.768 162.182 -89.7764 160.872 0.159299 0.130019 0.65114 0.15953 0.088323 0.658094 0.160668 -0.0501093 0.662101 0.16006 0.0550837 0.661705 -16.5324 4.41831 0.531619 -16.6005 8.17605 2.08155 -0.0 0.0 -0.0 1.17456 24.0426 4.36528 -21.8208 -23.4819 70.0239 0.140305 -3.97593 0.00486999 -4.30049 -0.171231 0.522232 0.58869 5.38828 6.1233 -0.0 0.0 -0.0 11.7612 13.9371 -23.6864 22.4318 -27.5424 -66.525 1.40802 34.8935 -0.44253 -58.7132 5.12317 -5.05932 -5.51332 -26.1034 20.9733 0.0 0.0 0.0 32.622 6.33247 -7.57984 -16.9533 0.319468 2.57255 14.8614 19.1747 -2.11783 -8.83946 0.0 0.0 -0.0 0.0 -0.0 -18.2308 15.1963 -1.23953 2.76941 0.123911 0.406839 36.182 -15.5442 4.58241 -2.55285 0.0 0.0 0.0 0.0 0.0 
1905.28 651.404 -488.743 -103.11 -89.0751 -104.576 0.0755138 0.129721 0.730094 0.0758064 0.0830015 0.736868 0.07703 -0.0727342 0.737952 0.0762731 0.0447211 0.740178 -14.0174 6.18045 2.27082 -14.0842 10.4071 4.10601 -0.0 0.0 -0.0 1.12214 23.8527 4.27997 -23.7003 -22.8815 69.6292 0.139515 -3.95363 0.00481541 -4.33422 -0.172729 0.526276 0.626074 19.0823 11.5356 -0.0 0.0 -0.0 12.0714 16.9433 -24.2808 24.1382 -25.8411 -67.4594 1.53833 37.3065 -0.519326 -59.0447 5.16419 -5.07045 -5.57665 -24.3912 22.7032 0.0 0.0 0.0 32.7198 6.11972 -7.18259 -7.65559 0.238675 1.14979 10.7556 21.3556 -1.56815 -11.2329 0.0 0.0 -0.0 0.0 -0.0 -18.1777 15.402 -1.06502 3.67711 0.168795 0.538854 37.3307 -9.65122 4.63242 -2.10373 0.0 0.0 0.0 0.0 0.0 
1925.36 644.106 -491.389 -100.618 -88.3574 -102.091 -0.0270708 0.174336 0.733959 -0.0267799 0.127281 0.743565 -0.0249459 -0.0321682 0.753693 -0.0257284 0.0872639 0.749315 -12.0223 7.18693 3.38355 -12.0614 11.4574 5.27705 -0.0 0.0 -0.0 0.907626 24.1317 4.0114 -25.2981 -22.1969 69.3887 0.165185 -4.6781 0.00674724 -4.2946 -0.17097 0.521526 0.278074 29.4195 13.0142 -0.0 0.0 -0.0 12.1385 19.2107 -24.3058 25.6279 -24.3571 -68.259 1.63646 39.027 -0.579968 -59.5978 5.23277 -5.08848 -5.58001 -22.8596 23.923 0.0 0.0 0.0 32.5824 6.01809 -7.10822 -2.23659 0.0856069 0.332545 7.98883 21.8892 -1.17753 -12.6191 0.0 0.0 -0.0 0.0 -0.0 -19.202 15.6361 -0.685784 3.72207 0.171073 0.545375 38.8357 -6.65092 4.75729 -0.241675 0.0 0.0 0.0 0.0 0.0 
1945.45 641.596 -482.071 -90.0001 -87.8749 -90.0001 -0.0278685 0.205232 0.842779 -0.027486 0.15119 0.85413 -0.0249906 -0.0320794 0.866813 -0.0260238 0.105215 0.861002 -10.5618 8.85333 4.91767 -10.5662 13.4344 7.05312 -0.0 0.0 -0.0 0.840561 24.0139 3.91102 -27.3354 -21.4359 69.1123 0.168535 -4.77252 0.00702323 -4.66647 -0.187608 0.566065 1.07752 30.3691 17.734 -0.0 0.0 -0.0 12.0239 19.5316 -24.0213 25.3665 -20.5954 -68.8967 1.7083 40.2359 -0.625796 -59.9895 5.28145 -5.10085 -5.16822 -21.4381 22.3445 0.0 0.0 0.0 32.4591 5.73626 -6.56227 -0.45711 0.0185524 0.067695 9.14468 20.7495 -1.33685 -12.3826 0.0 0.0 -0.0 0.0 -0.0 -19.6299 16.5149 0.207981 3.01123 0.135664 0.442077 38.2089 -2.88135 4.70312 1.404 -0.0 -0.0 0.0 0.0 0.0 
1966.27 638.062 -496.545 -101.777 -87.6971 -103.346 -0.0647716 0.25883 0.78225 -0.0644553 0.208531 0.797133 -0.061319 0.0354633 0.823193 -0.0622268 0.165022 0.807263 -9.50585 10.2836 5.88267 -9.47933 15.3183 8.22585 -0.0 0.0 -0.0 0.580353 23.8372 3.54283 -28.5778 -20.8488 68.4679 0.169942 -4.81219 0.00714085 -4.94259 -0.200149 0.599066 1.66533 29.8096 20.9394 -0.0 0.0 -0.0 11.8731 19.8914 -23.6508 25.4511 -17.8597 -69.3818 1.76476 41.1565 -0.662609 -61.1148 5.42171 -5.13453 -4.76846 -18.8485 21.5902 0.0 0.0 0.0 32.7956 5.31728 -6.14999 1.10642 -0.0471395 -0.163237 9.82601 19.595 -1.42711 -12.2757 0.0 0.0 -0.0 0.0 -0.0 -20.193 17.2731 0.594888 0.5316 0.0222549 0.0785416 39.044 0.75036 4.79874 4.2854 -0.0 -0.0 0.0 0.0 0.0 
1982.85 631.945 -501.465 -102.673 -87.4984 -104.524 -0.0437992 0.303019 0.922815 -0.0433584 0.243686 0.940224 -0.0390365 0.0399848 0.970464 -0.040299 0.192743 0.951973 -8.79192 11.3055 6.52064 -8.7377 16.6729 9.00049 -0.0 0.0 -0.0 0.585978 23.6197 3.53054 -29.6624 -20.3816 68.2983 0.162477 -4.60172 0.00652818 -5.03011 -0.204157 0.609514 2.10909 29.3824 23.4513 -0.0 0.0 -0.0 11.5776 20.1602 -22.956 25.8929 -15.7169 -69.5076 1.82026 42.0371 -0.699461 -61.9174 5.52212 -5.15686 -4.47577 -16.9432 20.9476 0.0 0.0 0.0 32.8291 4.96038 -5.85489 2.19005 -0.0963614 -0.32222 9.83665 18.7236 -1.42429 -12.2375 0.0 0.0 -0.0 0.0 -0.0 -20.9258 17.8073 1.14015 -1.1838 -0.0469301 -0.175605 39.5224 3.43067 4.86871 6.30531 -0.0 -0.0 0.0 0.0 0.0 
2001.3 627.73 -506.577 -102.614 -87.0889 -104.486 -0.0213154 0.347388 0.933505 -0.0208766 0.287286 0.953715 -0.0157523 0.0801702 0.99281 -0.0170499 0.235953 0.967693 -8.9954 11.9425 7.15026 -8.92936 17.4761 9.78774 -0.0 0.0 -0.0 0.559301 23.5928 3.49166 -30.5586 -19.9893 68.3645 0.170575 -4.83001 0.00719398 -5.11798 -0.208198 0.619997 2.56789 30.038 26.3433 -0.0 0.0 -0.0 12.0207 20.7541 -23.9259 26.4819 -13.577 -69.1113 1.85154 42.5228 -0.720501 -62.5622 5.60301 -5.17377 -4.25478 -15.4371 20.4552 0.0 0.0 0.0 33.1596 5.18194 -5.61995 -0.673509 0.0271463 0.0997924 10.2277 17.8919 -1.47509 -11.9395 0.0 0.0 -0.0 0.0 -0.0 -21.3689 18.1974 1.84381 -3.52084 -0.128867 -0.524887 39.7247 5.26872 4.91191 7.92589 -0.0 -0.0 0.0 0.0 0.0 
